<svg width="269" height="71" viewBox="0 0 269 71" fill="none" xmlns="http://www.w3.org/2000/svg">
<rect width="269" height="71" rx="5" fill="#D9D9D9"/>
<path d="M97.943 25.216H99.503V29.344C99.503 33.88 97.583 38.272 94.415 40.192L93.143 38.704C96.143 36.952 97.943 33.064 97.943 29.344V25.216ZM98.303 25.216H99.863V29.224C99.863 32.8 101.543 36.472 104.423 38.08L103.223 39.64C100.055 37.816 98.303 33.592 98.303 29.224V25.216ZM109.919 23.176H111.839V44.872H109.919V23.176ZM106.487 31.888H110.639V33.544H106.487V31.888ZM105.143 23.632H107.039V43.792H105.143V23.632ZM115.485 40.552H135.141V42.208H115.485V40.552ZM124.269 35.896H126.261V41.248H124.269V35.896ZM117.861 24.784H132.717V31.36H119.901V35.704H117.933V29.752H130.749V26.392H117.861V24.784ZM117.933 34.864H133.221V36.496H117.933V34.864ZM145.647 25.12H155.607V35.176H145.647V25.12ZM153.663 26.728H147.591V33.568H153.663V26.728ZM159.591 23.152H161.583V39.064H159.591V23.152ZM160.959 29.776H164.799V31.432H160.959V29.776ZM148.071 42.76H162.567V44.392H148.071V42.76ZM148.071 37.552H150.063V43.456H148.071V37.552ZM166.837 32.224H186.445V33.856H166.837V32.224ZM169.429 28.864H184.117V30.472H169.429V28.864ZM169.429 23.872H183.877V25.504H171.397V30.16H169.429V23.872ZM169.189 35.728H183.925V40.84H171.205V43.576H169.237V39.352H181.957V37.288H169.189V35.728ZM169.237 43.048H184.573V44.632H169.237V43.048ZM204.707 23.176H206.699V44.872H204.707V23.176ZM198.347 25.504H200.315C200.315 31.792 197.483 37.288 190.235 40.84L189.179 39.232C195.443 36.208 198.347 31.6 198.347 25.84V25.504ZM190.163 25.504H199.211V27.136H190.163V25.504Z" fill="#484848"/>
<path d="M83.5833 25.1666C83.296 25.1666 83.0205 25.2808 82.8173 25.4839C82.6141 25.6871 82.5 25.9626 82.5 26.25V28.7741C81.0997 27.5217 79.3675 26.7004 77.5115 26.4092C75.6556 26.1179 73.755 26.369 72.0384 27.1323C70.3218 27.8957 68.8623 29.1386 67.8354 30.7118C66.8085 32.285 66.258 34.1213 66.25 36C66.25 36.2873 66.3641 36.5628 66.5673 36.766C66.7705 36.9692 67.046 37.0833 67.3333 37.0833C67.6207 37.0833 67.8962 36.9692 68.0994 36.766C68.3025 36.5628 68.4167 36.2873 68.4167 36C68.4247 34.5152 68.8684 33.0655 69.6927 31.8306C70.5171 30.5957 71.6858 29.63 73.054 29.0532C74.4221 28.4764 75.9295 28.3139 77.3891 28.5859C78.8488 28.8579 80.1964 29.5524 81.265 30.5833H78.1667C77.8793 30.5833 77.6038 30.6974 77.4006 30.9006C77.1975 31.1038 77.0833 31.3793 77.0833 31.6666C77.0833 31.9539 77.1975 32.2295 77.4006 32.4327C77.6038 32.6358 77.8793 32.75 78.1667 32.75H83.5833C83.8706 32.75 84.1462 32.6358 84.3494 32.4327C84.5525 32.2295 84.6667 31.9539 84.6667 31.6666V26.25C84.6667 25.9626 84.5525 25.6871 84.3494 25.4839C84.1462 25.2808 83.8706 25.1666 83.5833 25.1666Z" fill="#484848"/>
<path d="M84.6666 34.9167C84.3793 34.9167 84.1038 35.0308 83.9006 35.234C83.6974 35.4372 83.5833 35.7127 83.5833 36C83.5814 37.4913 83.1399 38.9489 82.314 40.1906C81.488 41.4323 80.3143 42.4028 78.9396 42.9809C77.5649 43.559 76.0503 43.7189 74.5852 43.4407C73.1201 43.1625 71.7696 42.4585 70.7025 41.4167H73.8333C74.1206 41.4167 74.3962 41.3026 74.5993 41.0994C74.8025 40.8962 74.9166 40.6207 74.9166 40.3334C74.9166 40.046 74.8025 39.7705 74.5993 39.5673C74.3962 39.3642 74.1206 39.25 73.8333 39.25H68.4166C68.1293 39.25 67.8538 39.3642 67.6506 39.5673C67.4474 39.7705 67.3333 40.046 67.3333 40.3334V45.75C67.3333 46.0373 67.4474 46.3129 67.6506 46.5161C67.8538 46.7192 68.1293 46.8334 68.4166 46.8334C68.704 46.8334 68.9795 46.7192 69.1827 46.5161C69.3858 46.3129 69.5 46.0373 69.5 45.75V43.2259C70.9002 44.4783 72.6325 45.2996 74.4885 45.5908C76.3444 45.8821 78.245 45.631 79.9616 44.8676C81.6782 44.1043 83.1377 42.8613 84.1646 41.2882C85.1915 39.715 85.742 37.8787 85.75 36C85.75 35.7127 85.6358 35.4372 85.4327 35.234C85.2295 35.0308 84.954 34.9167 84.6666 34.9167Z" fill="#484848"/>
</svg>
