<svg width="684" height="770" viewBox="0 0 684 770" fill="none" xmlns="http://www.w3.org/2000/svg">
<rect width="683.308" height="769" rx="10" transform="matrix(-1 0 0 1 683.308 1)" fill="white"/>
<path d="M683.098 10C683.098 4.47716 678.621 0 673.098 0H377.098V770H673.098C678.621 770 683.098 765.523 683.098 760V10Z" fill="url(#paint0_linear_76_6)" fill-opacity="0.2"/>
<circle cx="106.827" cy="692.8" r="15.8" fill="#FF6007"/>
<path d="M164.76 677.263L169.5 685.163L164.76 693.063L136.32 693.063L131.053 685.163L136.32 677.263L164.76 677.263Z" fill="#FF6007"/>
<path d="M164.76 693.063L169.5 700.963L164.76 708.863L136.32 708.863L131.053 700.963L136.32 693.063L164.76 693.063Z" fill="#FF6007"/>
<path d="M51 692.8C51 684.074 58.0739 677 66.8 677C75.5261 677 82.6 684.074 82.6 692.8V708.6H51V692.8Z" fill="#FF6007"/>
<defs>
<linearGradient id="paint0_linear_76_6" x1="683.098" y1="101" x2="377.098" y2="101" gradientUnits="userSpaceOnUse">
<stop stop-color="#737373"/>
<stop offset="1" stop-color="#737373" stop-opacity="0"/>
</linearGradient>
</defs>
</svg>
