<svg width="119" height="33" viewBox="0 0 119 33" fill="none" xmlns="http://www.w3.org/2000/svg">
<circle cx="55.8269" cy="16.1867" r="15.8" fill="#FF6007"/>
<path d="M113.76 0.650024L118.5 8.55002L113.76 16.45L85.32 16.45L80.0533 8.55002L85.32 0.650023L113.76 0.650024Z" fill="#FF6007"/>
<path d="M113.76 16.4501L118.5 24.3501L113.76 32.2501L85.32 32.2501L80.0533 24.3501L85.32 16.4501L113.76 16.4501Z" fill="#FF6007"/>
<path d="M0 16.1867C0 7.46063 7.0739 0.386719 15.8 0.386719V0.386719C24.5261 0.386719 31.6 7.46062 31.6 16.1867V31.9867H0V16.1867Z" fill="#FF6007"/>
<path d="M13.25 10.2188C15.4219 10.2188 16.9844 12.1875 17 15.2812C16.9844 18.4062 15.4219 20.3594 13.25 20.3594C11.0781 20.3594 9.48438 18.4062 9.5 15.2812C9.48438 12.1875 11.0781 10.2188 13.25 10.2188ZM13.25 12.0156C12.1562 12.0156 11.4219 13.1719 11.4219 15.2812C11.4219 17.4062 12.1562 18.5469 13.25 18.5469C14.3594 18.5469 15.0781 17.4062 15.0938 15.2812C15.0781 13.1719 14.3594 12.0156 13.25 12.0156ZM20.6406 9.21875V14.5781H22.7344V16.2344H20.6406V23.4375H18.6406V9.21875H20.6406Z" fill="#F3F3F3"/>
<path d="M61.3281 9.21875V23.4688H59.3125V9.21875H61.3281ZM53.6094 10.2188C55.75 10.2188 57.3438 12.1875 57.3438 15.2812C57.3438 18.4062 55.75 20.3594 53.6094 20.3594C51.4219 20.3594 49.8281 18.4062 49.8438 15.2812C49.8281 12.1875 51.4219 10.2188 53.6094 10.2188ZM53.6094 12.0156C52.5 12.0156 51.7656 13.1719 51.7656 15.2812C51.7656 17.4062 52.5 18.5469 53.6094 18.5469C54.6875 18.5469 55.4219 17.4062 55.4219 15.2812C55.4219 13.1719 54.6875 12.0156 53.6094 12.0156Z" fill="#F3F3F3"/>
<path d="M103.703 9.23438V12.5469H105.625V14.1875H103.703V17.75H101.703V9.23438H103.703ZM99.4531 10.0781V14.3125H94.9219V15.5625C97.2734 15.5469 98.8672 15.4531 100.672 15.1406L100.891 16.7344C98.8438 17.1094 97.0156 17.1875 94.1406 17.1875H92.9375V12.8125H97.5156V11.6406H92.9219V10.0781H99.4531ZM99.0156 18.0312C101.969 18.0312 103.844 19.0625 103.844 20.7656C103.844 22.4531 101.969 23.4219 99.0156 23.4219C96 23.4219 94.1406 22.4531 94.1406 20.7656C94.1406 19.0625 96 18.0312 99.0156 18.0312ZM99.0156 19.5781C97.125 19.5781 96.0938 19.9688 96.1094 20.7656C96.0938 21.5312 97.125 21.9375 99.0156 21.9375C100.891 21.9375 101.875 21.5312 101.875 20.7656C101.875 19.9688 100.891 19.5781 99.0156 19.5781Z" fill="#F3F3F3"/>
</svg>
