<svg width="685" height="791" viewBox="0 0 685 791" fill="none" xmlns="http://www.w3.org/2000/svg">
<rect x="0.790039" y="1" width="683.308" height="769" rx="10" fill="white"/>
<path d="M62.312 455.032H64.968V460.088H62.312V455.032ZM50.568 454.104H76.712V456.248H50.568V454.104ZM63.624 459.288C69.832 459.288 73.544 461.112 73.544 464.376C73.544 467.608 69.832 469.432 63.624 469.432C57.416 469.432 53.704 467.608 53.704 464.376C53.704 461.112 57.416 459.288 63.624 459.288ZM63.624 461.336C59.112 461.336 56.392 462.424 56.392 464.376C56.392 466.296 59.112 467.384 63.624 467.384C68.168 467.384 70.856 466.296 70.856 464.376C70.856 462.424 68.168 461.336 63.624 461.336ZM61.928 442.936H64.296V443.8C64.296 448.472 58.984 451.608 53 452.344L52.04 450.232C57.224 449.688 61.928 447.096 61.928 443.8V442.936ZM63.048 442.936H65.384V443.8C65.384 447.096 70.088 449.688 75.272 450.232L74.312 452.344C68.328 451.608 63.048 448.472 63.048 443.8V442.936ZM52.968 441.88H74.376V444.024H52.968V441.88ZM91.4295 450.904H96.9655V453.112H91.4295V450.904ZM86.0215 443.288H88.1015V448.792C88.1015 454.84 85.5735 460.696 81.3495 463.288L79.6855 461.272C83.6535 458.936 86.0215 453.752 86.0215 448.792V443.288ZM86.5335 443.288H88.5815V448.696C88.5815 453.336 90.7575 458.264 94.5655 460.568L93.0295 462.648C88.8695 460.088 86.5335 454.328 86.5335 448.696V443.288ZM102.054 440.568H104.614V469.496H102.054V440.568ZM96.1975 441.176H98.6935V468.056H96.1975V441.176ZM126.685 443.064H128.861V448.248C128.861 454.904 125.277 461.08 120.541 463.48L118.909 461.304C123.197 459.256 126.685 453.72 126.685 448.248V443.064ZM127.133 443.064H129.309V448.248C129.309 453.528 132.765 458.84 137.053 460.824L135.453 462.936C130.749 460.632 127.133 454.68 127.133 448.248V443.064ZM140.061 440.536H142.717V469.528H140.061V440.536ZM170.49 440.568H173.05V469.496H170.49V440.568ZM165.594 452.152H171.162V454.36H165.594V452.152ZM163.93 441.208H166.426V468.024H163.93V441.208ZM149.53 460.152H151.418C155.642 460.152 158.522 459.992 161.882 459.288L162.138 461.496C158.682 462.232 155.77 462.36 151.418 462.36H149.53V460.152ZM149.53 444.088H160.282V446.264H152.154V461.144H149.53V444.088ZM187.32 442.648C191.832 442.648 195.064 445.432 195.064 449.464C195.064 453.528 191.832 456.312 187.32 456.312C182.808 456.312 179.544 453.528 179.544 449.464C179.544 445.432 182.808 442.648 187.32 442.648ZM187.32 444.952C184.312 444.952 182.136 446.776 182.136 449.464C182.136 452.152 184.312 454.008 187.32 454.008C190.296 454.008 192.472 452.152 192.472 449.464C192.472 446.776 190.296 444.952 187.32 444.952ZM198.84 440.536H201.496V469.528H198.84V440.536ZM178.456 463.192L178.072 460.984C183.352 460.984 190.648 460.952 196.952 459.96L197.176 461.912C190.68 463.16 183.608 463.192 178.456 463.192ZM224.079 443.544H226.255V445.88C226.255 451.192 223.055 455.608 218.223 457.336L216.815 455.256C221.199 453.72 224.079 450.008 224.079 445.88V443.544ZM224.559 443.544H226.735V445.848C226.735 449.688 229.519 453.24 233.775 454.68L232.399 456.76C227.631 455.096 224.559 450.84 224.559 445.848V443.544ZM217.647 442.584H233.103V444.76H217.647V442.584ZM236.751 440.568H239.407V457.976H236.751V440.568ZM238.671 448.184H243.695V450.392H238.671V448.184ZM220.623 459.512H239.407V469.496H236.751V461.72H220.623V459.512ZM246.381 455.768H272.525V457.944H246.381V455.768ZM249.773 466.68H269.645V468.856H249.773V466.68ZM249.773 460.472H252.429V467.352H249.773V460.472ZM259.469 441.528C265.645 441.528 269.645 443.704 269.645 447.32C269.645 450.904 265.645 453.08 259.469 453.08C253.26 453.08 249.293 450.904 249.293 447.32C249.293 443.704 253.26 441.528 259.469 441.528ZM259.469 443.704C254.925 443.704 252.013 445.048 252.013 447.32C252.013 449.592 254.925 450.936 259.469 450.936C264.013 450.936 266.925 449.592 266.925 447.32C266.925 445.048 264.013 443.704 259.469 443.704ZM305.188 440.6H307.844V459.064H305.188V440.6ZM306.724 448.664H312.068V450.872H306.724V448.664ZM298.564 459.352C304.452 459.352 308.068 461.208 308.068 464.376C308.068 467.576 304.452 469.432 298.564 469.432C292.676 469.432 289.092 467.576 289.092 464.376C289.092 461.208 292.676 459.352 298.564 459.352ZM298.564 461.4C294.308 461.4 291.716 462.52 291.716 464.376C291.716 466.296 294.308 467.384 298.564 467.384C302.852 467.384 305.412 466.296 305.412 464.376C305.412 462.52 302.852 461.4 298.564 461.4ZM292.9 451.384H295.556V455.992H292.9V451.384ZM285.7 457.112L285.38 454.968C290.468 454.968 297.508 454.936 303.396 454.04L303.588 455.928C297.54 457.016 290.692 457.112 285.7 457.112ZM294.148 441.656C298.372 441.656 301.284 443.768 301.284 446.968C301.284 450.168 298.372 452.28 294.148 452.28C289.956 452.28 287.044 450.168 287.044 446.968C287.044 443.768 289.956 441.656 294.148 441.656ZM294.148 443.64C291.428 443.64 289.54 444.952 289.54 446.968C289.54 448.952 291.428 450.296 294.148 450.296C296.9 450.296 298.788 448.952 298.788 446.968C298.788 444.952 296.9 443.64 294.148 443.64ZM318.209 441.912H336.833V444.088H318.209V441.912ZM314.881 452.28H341.089V454.456H314.881V452.28ZM326.625 453.752H329.249V460.568H326.625V453.752ZM335.105 441.912H337.697V444.056C337.697 446.456 337.697 449.368 336.737 453.336L334.145 453.016C335.105 449.144 335.105 446.392 335.105 444.056V441.912ZM317.601 459.704H337.889V469.496H335.233V461.88H317.601V459.704ZM356.031 451.8H361.503V454.008H356.031V451.8ZM366.335 440.568H368.895V469.496H366.335V440.568ZM360.607 441.176H363.135V468.056H360.607V441.176ZM350.815 442.968C354.559 442.968 356.991 446.84 356.991 453.048C356.991 459.256 354.559 463.128 350.815 463.128C347.071 463.128 344.671 459.256 344.671 453.048C344.671 446.84 347.071 442.968 350.815 442.968ZM350.815 445.432C348.543 445.432 347.103 448.376 347.103 453.048C347.103 457.72 348.543 460.664 350.815 460.664C353.119 460.664 354.559 457.72 354.559 453.048C354.559 448.376 353.119 445.432 350.815 445.432ZM388.188 450.36H396.252V452.536H388.188V450.36ZM381.212 443.064H383.388V448.216C383.388 454.712 379.964 460.92 375.388 463.384L373.692 461.272C377.948 459.16 381.212 453.592 381.212 448.216V443.064ZM381.724 443.064H383.868V448.216C383.868 453.496 387.132 458.744 391.324 460.728L389.756 462.872C385.084 460.504 381.724 454.552 381.724 448.216V443.064ZM394.94 440.536H397.564V469.528H394.94V440.536ZM420.5 442.776C424.692 442.776 427.7 446.712 427.7 452.856C427.7 459.032 424.692 462.968 420.5 462.968C416.276 462.968 413.299 459.032 413.299 452.856C413.299 446.712 416.276 442.776 420.5 442.776ZM420.5 445.176C417.716 445.176 415.828 448.184 415.828 452.856C415.828 457.56 417.716 460.632 420.5 460.632C423.284 460.632 425.172 457.56 425.172 452.856C425.172 448.184 423.284 445.176 420.5 445.176ZM433.972 440.536H436.596V469.528H433.972V440.536ZM426.836 451.576H435.124V453.752H426.836V451.576ZM463.249 440.6H465.905V461.912H463.249V440.6ZM447.057 466.68H466.705V468.856H447.057V466.68ZM447.057 460.216H449.713V467.768H447.057V460.216ZM443.697 455.608H446.033C451.505 455.608 455.313 455.416 459.793 454.648L460.081 456.824C455.473 457.624 451.633 457.784 446.033 457.784H443.697V455.608ZM443.633 442.616H456.753V451H446.289V456.28H443.697V448.952H454.161V444.792H443.633V442.616ZM494.216 458.808C500.36 458.808 504.296 460.824 504.296 464.152C504.296 467.448 500.36 469.432 494.216 469.432C488.04 469.432 484.136 467.448 484.136 464.152C484.136 460.824 488.04 458.808 494.216 458.808ZM494.216 460.888C489.672 460.888 486.76 462.136 486.76 464.152C486.76 466.136 489.672 467.384 494.216 467.384C498.76 467.384 501.64 466.136 501.64 464.152C501.64 462.136 498.76 460.888 494.216 460.888ZM484.36 442.008H502.984V444.184H484.36V442.008ZM481.256 454.04H507.368V456.184H481.256V454.04ZM491.976 448.472H494.6V454.648H491.976V448.472ZM501.448 442.008H504.04V444.472C504.04 446.808 504.04 449.144 503.272 452.152L500.648 451.832C501.448 448.856 501.448 446.744 501.448 444.472V442.008ZM522.278 443.416H524.582V444.632C524.582 449.816 519.078 453.624 513.254 454.616L512.23 452.504C517.318 451.768 522.278 448.44 522.278 444.632V443.416ZM522.95 443.416H525.222V444.632C525.222 448.44 530.214 451.768 535.27 452.504L534.278 454.616C528.422 453.624 522.95 449.816 522.95 444.632V443.416ZM522.374 458.456H524.998V469.496H522.374V458.456ZM510.694 457.048H536.838V459.224H510.694V457.048ZM513.126 442.36H534.31V444.504H513.126V442.36ZM559.683 440.536H562.371V469.496H559.683V440.536ZM561.635 452.28H566.979V454.488H561.635V452.28ZM552.291 443.672H554.883C554.883 451.896 551.107 459.32 541.763 464.024L540.291 461.976C548.291 457.912 552.291 451.736 552.291 444.088V443.672ZM541.635 443.672H553.667V445.848H541.635V443.672ZM586.203 441.528H588.379V443.832C588.379 449.272 585.211 453.624 580.283 455.352L578.971 453.208C583.355 451.768 586.203 448.12 586.203 443.832V441.528ZM586.683 441.528H588.827V443.768C588.827 447.672 591.675 451.064 595.931 452.408L594.555 454.488C589.819 452.856 586.683 448.824 586.683 443.768V441.528ZM598.939 440.568H601.595V455.64H598.939V440.568ZM600.443 446.872H605.851V449.08H600.443V446.872ZM583.227 456.984H601.595V463.928H585.915V468.248H583.291V461.912H599.003V459.096H583.227V456.984ZM583.291 467.064H602.651V469.176H583.291V467.064ZM611.352 443.448H629.976V445.656H611.352V443.448ZM608.6 463.256H634.744V465.464H608.6V463.256ZM618.744 452.92H621.4V464.344H618.744V452.92ZM628.984 443.448H631.608V446.328C631.608 449.912 631.608 453.88 630.552 459.736L627.896 459.384C628.984 453.848 628.984 449.784 628.984 446.328V443.448ZM57.8 506.36H59.848V507.928C59.848 511.704 57.48 515.512 53.32 517.112L51.976 515.128C55.624 513.816 57.8 510.712 57.8 507.928V506.36ZM58.376 506.36H60.36V507.928C60.36 510.84 62.088 513.944 65.544 515.352L64.424 517.368C60.264 515.736 58.376 511.768 58.376 507.928V506.36ZM68.488 506.36H70.472V507.928C70.472 511.32 68.552 515.608 64.424 517.368L63.304 515.352C66.728 513.784 68.488 510.424 68.488 507.928V506.36ZM69.032 506.36H71.08V507.928C71.08 510.904 73.224 513.88 76.904 515.128L75.56 517.112C71.336 515.576 69.032 511.928 69.032 507.928V506.36ZM71.624 488.6H74.312V505.112H71.624V488.6ZM58.792 490.264C63.176 490.264 66.312 493.016 66.312 497.016C66.312 501.016 63.176 503.736 58.792 503.736C54.408 503.736 51.24 501.016 51.24 497.016C51.24 493.016 54.408 490.264 58.792 490.264ZM58.792 492.472C55.912 492.472 53.832 494.328 53.832 497.016C53.832 499.704 55.912 501.528 58.792 501.528C61.672 501.528 63.752 499.704 63.752 497.016C63.752 494.328 61.672 492.472 58.792 492.472ZM87.3975 506.2H89.4775V507.864C89.4775 511.704 87.1095 515.544 82.9495 517.144L81.6055 515.16C85.2535 513.816 87.3975 510.68 87.3975 507.864V506.2ZM88.0055 506.2H89.9895V507.864C89.9895 510.808 91.6855 513.976 95.1735 515.384L94.0535 517.4C89.8615 515.768 88.0055 511.736 88.0055 507.864V506.2ZM98.1175 506.2H100.07V507.864C100.07 511.288 98.1815 515.64 94.0535 517.4L92.9015 515.384C96.3575 513.784 98.1175 510.392 98.1175 507.864V506.2ZM98.6295 506.2H100.71V507.864C100.71 510.904 102.822 513.912 106.534 515.16L105.158 517.144C100.966 515.608 98.6295 511.896 98.6295 507.864V506.2ZM94.2455 495.8H101.894V498.008H94.2455V495.8ZM87.9095 490.2C92.1655 490.2 95.3335 492.984 95.3335 496.984C95.3335 500.952 92.1655 503.736 87.9095 503.736C83.6535 503.736 80.5175 500.952 80.5175 496.984C80.5175 492.984 83.6535 490.2 87.9095 490.2ZM87.9095 492.408C85.0935 492.408 83.0455 494.328 83.0455 496.984C83.0455 499.64 85.0935 501.528 87.9095 501.528C90.6935 501.528 92.7735 499.64 92.7735 496.984C92.7735 494.328 90.6935 492.408 87.9095 492.408ZM101.158 488.568H103.814V505.048H101.158V488.568ZM112.771 505.912H115.395V509.272H129.539V505.912H132.195V517.112H112.771V505.912ZM115.395 511.32V514.968H129.539V511.32H115.395ZM109.443 501.752H135.587V503.896H109.443V501.752ZM121.187 488.888H123.459V490.168C123.459 495.192 117.859 498.808 111.907 499.704L110.947 497.624C116.163 496.92 121.187 493.816 121.187 490.168V488.888ZM121.603 488.888H123.875V490.168C123.875 493.752 128.963 496.92 134.115 497.624L133.123 499.704C127.235 498.808 121.603 495.128 121.603 490.168V488.888ZM159.937 488.568H162.593V517.496H159.937V488.568ZM140.737 491.384H143.361V509.304H140.737V491.384ZM140.737 507.736H143.105C147.489 507.736 152.065 507.416 156.961 506.392L157.281 508.664C152.257 509.688 147.681 510.04 143.105 510.04H140.737V507.736ZM187.902 488.536H190.59V517.528H187.902V488.536ZM189.95 499.96H195.326V502.2H189.95V499.96ZM169.566 508.088H171.838C177.182 508.088 180.926 507.896 185.246 507.096L185.534 509.336C181.086 510.168 177.278 510.328 171.838 510.328H169.566V508.088ZM169.566 491.352H183.006V493.528H172.19V509.08H169.566V491.352ZM199.996 515.384C199.398 515.384 198.918 515.203 198.556 514.84C198.193 514.456 198.012 514.029 198.012 513.56C198.012 512.771 198.257 512.163 198.748 511.736C199.238 511.309 199.782 511.096 200.38 511.096C200.998 511.096 201.478 511.277 201.82 511.64C202.182 512.003 202.364 512.429 202.364 512.92C202.364 513.709 202.118 514.317 201.628 514.744C201.158 515.171 200.614 515.384 199.996 515.384ZM219.791 491.64H238.415V493.784H219.791V491.64ZM216.975 511.064H243.119V513.272H216.975V511.064ZM237.007 491.64H239.599V494.52C239.599 498.232 239.599 502.36 238.511 508.6L235.855 508.344C237.007 502.424 237.007 498.104 237.007 494.52V491.64ZM267.597 488.568H270.253V517.56H267.597V488.568ZM258.925 495.288H268.685V497.496H258.925V495.288ZM247.981 491.736H250.605V509.688H247.981V491.736ZM247.981 508.6H250.157C255.053 508.6 258.637 508.376 262.733 507.576L263.053 509.752C258.829 510.584 255.149 510.84 250.157 510.84H247.981V508.6ZM258.925 501.88H268.685V504.056H258.925V501.88ZM285.226 490.648C289.738 490.648 292.97 493.432 292.97 497.464C292.97 501.528 289.738 504.312 285.226 504.312C280.714 504.312 277.45 501.528 277.45 497.464C277.45 493.432 280.714 490.648 285.226 490.648ZM285.226 492.952C282.218 492.952 280.042 494.776 280.042 497.464C280.042 500.152 282.218 502.008 285.226 502.008C288.202 502.008 290.378 500.152 290.378 497.464C290.378 494.776 288.202 492.952 285.226 492.952ZM296.746 488.536H299.402V517.528H296.746V488.536ZM276.362 511.192L275.978 508.984C281.258 508.984 288.554 508.952 294.858 507.96L295.082 509.912C288.586 511.16 281.514 511.192 276.362 511.192ZM335.873 488.536H338.529V517.528H335.873V488.536ZM323.265 490.776C327.553 490.776 330.625 494.712 330.625 500.856C330.625 507.032 327.553 510.968 323.265 510.968C319.009 510.968 315.937 507.032 315.937 500.856C315.937 494.712 319.009 490.776 323.265 490.776ZM323.265 493.176C320.449 493.176 318.465 496.184 318.465 500.856C318.465 505.56 320.449 508.632 323.265 508.632C326.113 508.632 328.065 505.56 328.065 500.856C328.065 496.184 326.113 493.176 323.265 493.176ZM344.287 503.48H370.527V505.656H344.287V503.48ZM347.615 489.272H367.135V496.12H350.303V499.96H347.679V494.168H364.543V491.352H347.615V489.272ZM347.679 498.936H367.775V501.016H347.679V498.936ZM347.807 508.28H367.167V517.112H347.807V508.28ZM364.575 510.392H350.399V514.968H364.575V510.392ZM373.724 503.768H399.868V505.944H373.724V503.768ZM377.116 514.68H396.988V516.856H377.116V514.68ZM377.116 508.472H379.772V515.352H377.116V508.472ZM386.812 489.528C392.988 489.528 396.988 491.704 396.988 495.32C396.988 498.904 392.988 501.08 386.812 501.08C380.604 501.08 376.636 498.904 376.636 495.32C376.636 491.704 380.604 489.528 386.812 489.528ZM386.812 491.704C382.268 491.704 379.356 493.048 379.356 495.32C379.356 497.592 382.268 498.936 386.812 498.936C391.356 498.936 394.268 497.592 394.268 495.32C394.268 493.048 391.356 491.704 386.812 491.704ZM425.076 495.16H430.003V497.336H425.076V495.16ZM434.612 488.6H437.14V503.608H434.612V488.6ZM429.14 489.176H431.668V503.416H429.14V489.176ZM418.068 504.952H437.14V511.864H420.788V516.184H418.132V509.848H434.548V507.096H418.068V504.952ZM418.132 514.968H438.26V517.112H418.132V514.968ZM419.635 489.912C423.444 489.912 426.196 492.504 426.196 496.28C426.196 500.056 423.444 502.648 419.635 502.648C415.764 502.648 413.044 500.056 413.044 496.28C413.044 492.504 415.764 489.912 419.635 489.912ZM419.635 492.024C417.204 492.024 415.444 493.784 415.444 496.28C415.444 498.744 417.204 500.536 419.635 500.536C422.036 500.536 423.796 498.744 423.796 496.28C423.796 493.784 422.036 492.024 419.635 492.024ZM463.281 488.536H465.937V517.528H463.281V488.536ZM443.889 508.344H446.289C451.121 508.344 455.441 508.152 460.561 507.32L460.849 509.496C455.601 510.36 451.249 510.552 446.289 510.552H443.889V508.344ZM443.825 491.256H457.201V501.592H446.545V509.176H443.889V499.416H454.513V493.432H443.825V491.256ZM493.167 500.088H498.511V502.328H493.167V500.088ZM491.215 488.536H493.903V517.496H491.215V488.536ZM472.783 491.384H475.439V509.304H472.783V491.384ZM472.783 507.928H475.087C479.375 507.928 483.759 507.64 488.527 506.648L488.847 508.856C483.919 509.88 479.47 510.168 475.087 510.168H472.783V507.928ZM514.284 492.6H523.308V494.744H514.284V492.6ZM514.284 499.064H523.308V501.272H514.284V499.064ZM508.46 505.976H510.54V507.896C510.54 511.736 508.172 515.576 504.012 517.176L502.668 515.192C506.316 513.848 508.46 510.712 508.46 507.896V505.976ZM509.068 505.976H511.052V507.896C511.052 510.84 512.748 514.008 516.236 515.416L515.116 517.432C510.924 515.8 509.068 511.768 509.068 507.896V505.976ZM519.18 505.976H521.132V507.896C521.132 511.32 519.244 515.672 515.116 517.432L513.964 515.416C517.42 513.816 519.18 510.424 519.18 507.896V505.976ZM519.692 505.976H521.772V507.896C521.772 510.936 523.884 513.944 527.596 515.192L526.22 517.176C522.028 515.64 519.692 511.928 519.692 507.896V505.976ZM508.972 490.136C513.228 490.136 516.396 492.952 516.396 496.952C516.396 500.984 513.228 503.8 508.972 503.8C504.716 503.8 501.58 500.984 501.58 496.952C501.58 492.952 504.716 490.136 508.972 490.136ZM508.972 492.376C506.156 492.376 504.076 494.264 504.076 496.952C504.076 499.64 506.156 501.56 508.972 501.56C511.788 501.56 513.836 499.64 513.836 496.952C513.836 494.264 511.788 492.376 508.972 492.376ZM522.22 488.568H524.876V505.048H522.22V488.568ZM533.834 505.912H536.458V509.272H550.602V505.912H553.258V517.112H533.834V505.912ZM536.458 511.32V514.968H550.602V511.32H536.458ZM530.506 501.752H556.65V503.896H530.506V501.752ZM542.25 488.888H544.522V490.168C544.522 495.192 538.922 498.808 532.97 499.704L532.01 497.624C537.226 496.92 542.25 493.816 542.25 490.168V488.888ZM542.666 488.888H544.938V490.168C544.938 493.752 550.026 496.92 555.178 497.624L554.186 499.704C548.298 498.808 542.666 495.128 542.666 490.168V488.888ZM580.999 488.568H583.655V517.496H580.999V488.568ZM561.799 491.384H564.423V509.304H561.799V491.384ZM561.799 507.736H564.167C568.551 507.736 573.127 507.416 578.023 506.392L578.343 508.664C573.319 509.688 568.743 510.04 564.167 510.04H561.799V507.736ZM608.965 488.536H611.653V517.528H608.965V488.536ZM611.013 499.96H616.389V502.2H611.013V499.96ZM590.629 508.088H592.901C598.245 508.088 601.989 507.896 606.309 507.096L606.597 509.336C602.149 510.168 598.341 510.328 592.901 510.328H590.629V508.088ZM590.629 491.352H604.069V493.528H593.253V509.08H590.629V491.352ZM621.058 515.384C620.461 515.384 619.981 515.203 619.618 514.84C619.255 514.456 619.074 514.029 619.074 513.56C619.074 512.771 619.319 512.163 619.81 511.736C620.301 511.309 620.845 511.096 621.442 511.096C622.061 511.096 622.541 511.277 622.882 511.64C623.245 512.003 623.426 512.429 623.426 512.92C623.426 513.709 623.181 514.317 622.69 514.744C622.221 515.171 621.677 515.384 621.058 515.384ZM62.888 543.16H67.816V545.336H62.888V543.16ZM72.424 536.6H74.952V551.608H72.424V536.6ZM66.952 537.176H69.48V551.416H66.952V537.176ZM55.88 552.952H74.952V559.864H58.6V564.184H55.944V557.848H72.36V555.096H55.88V552.952ZM55.944 562.968H76.072V565.112H55.944V562.968ZM57.448 537.912C61.256 537.912 64.008 540.504 64.008 544.28C64.008 548.056 61.256 550.648 57.448 550.648C53.576 550.648 50.856 548.056 50.856 544.28C50.856 540.504 53.576 537.912 57.448 537.912ZM57.448 540.024C55.016 540.024 53.256 541.784 53.256 544.28C53.256 546.744 55.016 548.536 57.448 548.536C59.848 548.536 61.608 546.744 61.608 544.28C61.608 541.784 59.848 540.024 57.448 540.024ZM101.094 536.536H103.75V565.528H101.094V536.536ZM81.7015 556.344H84.1015C88.9335 556.344 93.2535 556.152 98.3735 555.32L98.6615 557.496C93.4135 558.36 89.0615 558.552 84.1015 558.552H81.7015V556.344ZM81.6375 539.256H95.0135V549.592H84.3575V557.176H81.7015V547.416H92.3255V541.432H81.6375V539.256ZM130.979 548.088H136.323V550.328H130.979V548.088ZM129.027 536.536H131.715V565.496H129.027V536.536ZM110.595 539.384H113.251V557.304H110.595V539.384ZM110.595 555.928H112.899C117.187 555.928 121.571 555.64 126.339 554.648L126.659 556.856C121.731 557.88 117.283 558.168 112.899 558.168H110.595V555.928ZM161.466 554.808C167.61 554.808 171.546 556.824 171.546 560.152C171.546 563.448 167.61 565.432 161.466 565.432C155.29 565.432 151.386 563.448 151.386 560.152C151.386 556.824 155.29 554.808 161.466 554.808ZM161.466 556.888C156.922 556.888 154.01 558.136 154.01 560.152C154.01 562.136 156.922 563.384 161.466 563.384C166.01 563.384 168.89 562.136 168.89 560.152C168.89 558.136 166.01 556.888 161.466 556.888ZM151.61 538.008H170.234V540.184H151.61V538.008ZM148.506 550.04H174.618V552.184H148.506V550.04ZM159.226 544.472H161.85V550.648H159.226V544.472ZM168.698 538.008H171.29V540.472C171.29 542.808 171.29 545.144 170.522 548.152L167.898 547.832C168.698 544.856 168.698 542.744 168.698 540.472V538.008ZM189.528 539.416H191.832V540.632C191.832 545.816 186.328 549.624 180.504 550.616L179.48 548.504C184.568 547.768 189.528 544.44 189.528 540.632V539.416ZM190.2 539.416H192.472V540.632C192.472 544.44 197.464 547.768 202.52 548.504L201.528 550.616C195.672 549.624 190.2 545.816 190.2 540.632V539.416ZM189.624 554.456H192.248V565.496H189.624V554.456ZM177.944 553.048H204.088V555.224H177.944V553.048ZM180.376 538.36H201.56V540.504H180.376V538.36ZM210.901 545.24H230.549V547.416H210.901V545.24ZM207.349 551.288H233.589V553.464H207.349V551.288ZM210.901 537.624H213.525V546.328H210.901V537.624ZM210.709 562.616H230.709V564.792H210.709V562.616ZM210.709 556.344H213.333V563.192H210.709V556.344ZM247.533 539.448H260.812V558.168H247.533V539.448ZM258.221 541.592H250.125V556.024H258.221V541.592ZM265.965 536.568H268.653V565.496H265.965V536.568ZM268.013 548.12H273.389V550.36H268.013V548.12ZM288.906 537.048C295.274 537.048 299.082 538.84 299.082 542.072C299.082 545.304 295.274 547.096 288.906 547.096C282.506 547.096 278.73 545.304 278.73 542.072C278.73 538.84 282.506 537.048 288.906 537.048ZM288.906 539.064C284.17 539.064 281.45 540.152 281.45 542.072C281.45 543.992 284.17 545.08 288.906 545.08C293.61 545.08 296.33 543.992 296.33 542.072C296.33 540.152 293.61 539.064 288.906 539.064ZM275.818 549.016H301.962V551.16H275.818V549.016ZM278.986 553.624H298.634V560.152H281.674V563.672H279.05V558.232H296.01V555.672H278.986V553.624ZM279.05 563.096H299.498V565.176H279.05V563.096ZM322.497 539.064H324.673V544.248C324.673 550.904 321.089 557.08 316.353 559.48L314.721 557.304C319.009 555.256 322.497 549.72 322.497 544.248V539.064ZM322.945 539.064H325.121V544.248C325.121 549.528 328.577 554.84 332.865 556.824L331.265 558.936C326.561 556.632 322.945 550.68 322.945 544.248V539.064ZM335.873 536.536H338.529V565.528H335.873V536.536ZM351.423 539.672H353.599V542.008C353.599 547.32 350.399 551.768 345.535 553.528L344.191 551.416C348.543 549.88 351.423 546.136 351.423 542.008V539.672ZM351.903 539.672H354.079V541.976C354.079 545.752 356.831 549.144 361.087 550.552L359.807 552.632C354.975 551.032 351.903 546.904 351.903 541.976V539.672ZM344.991 538.712H360.447V540.888H344.991V538.712ZM364.095 536.568H366.751V554.008H364.095V536.568ZM366.015 543.896H371.039V546.136H366.015V543.896ZM357.535 554.776C363.423 554.776 367.039 556.728 367.039 560.088C367.039 563.48 363.423 565.432 357.535 565.432C351.647 565.432 348.031 563.48 348.031 560.088C348.031 556.728 351.647 554.776 357.535 554.776ZM357.535 556.92C353.247 556.92 350.623 558.072 350.623 560.088C350.623 562.136 353.247 563.352 357.535 563.352C361.823 563.352 364.447 562.136 364.447 560.088C364.447 558.072 361.823 556.92 357.535 556.92ZM385.468 547.8H390.94V550.008H385.468V547.8ZM395.772 536.568H398.332V565.496H395.772V536.568ZM390.044 537.176H392.572V564.056H390.044V537.176ZM380.252 538.968C383.996 538.968 386.428 542.84 386.428 549.048C386.428 555.256 383.996 559.128 380.252 559.128C376.508 559.128 374.108 555.256 374.108 549.048C374.108 542.84 376.508 538.968 380.252 538.968ZM380.252 541.432C377.98 541.432 376.54 544.376 376.54 549.048C376.54 553.72 377.98 556.664 380.252 556.664C382.556 556.664 383.996 553.72 383.996 549.048C383.996 544.376 382.556 541.432 380.252 541.432ZM417.626 546.36H425.69V548.536H417.626V546.36ZM410.65 539.064H412.826V544.216C412.826 550.712 409.402 556.92 404.826 559.384L403.13 557.272C407.386 555.16 410.65 549.592 410.65 544.216V539.064ZM411.162 539.064H413.306V544.216C413.306 549.496 416.57 554.744 420.762 556.728L419.194 558.872C414.522 556.504 411.162 550.552 411.162 544.216V539.064ZM424.378 536.536H427.002V565.528H424.378V536.536ZM442.225 559.608H468.433V561.816H442.225V559.608ZM453.937 552.696H456.593V560.248H453.937V552.696ZM445.297 538.616H447.921V543.768H462.673V538.616H465.297V553.4H445.297V538.616ZM447.921 545.912V551.224H462.673V545.912H447.921ZM479.727 538.264C484.079 538.264 487.279 541.048 487.279 545.08C487.279 549.112 484.079 551.896 479.727 551.896C475.375 551.896 472.174 549.112 472.174 545.08C472.174 541.048 475.375 538.264 479.727 538.264ZM479.727 540.504C476.847 540.504 474.766 542.36 474.766 545.08C474.766 547.8 476.847 549.656 479.727 549.656C482.607 549.656 484.687 547.8 484.687 545.08C484.687 542.36 482.607 540.504 479.727 540.504ZM491.439 536.568H494.095V553.048H491.439V536.568ZM493.359 543.48H498.383V545.688H493.359V543.48ZM478.575 554.328H480.623V555.896C480.623 559.704 478.286 563.544 474.127 565.144L472.783 563.16C476.431 561.816 478.575 558.68 478.575 555.896V554.328ZM479.151 554.328H481.135V555.896C481.135 558.84 482.831 561.976 486.351 563.384L485.199 565.4C481.007 563.768 479.151 559.768 479.151 555.896V554.328ZM489.263 554.328H491.247V555.896C491.247 559.32 489.359 563.64 485.199 565.4L484.047 563.384C487.535 561.816 489.263 558.424 489.263 555.896V554.328ZM489.775 554.328H491.855V555.896C491.855 558.904 493.967 561.912 497.615 563.16L496.303 565.144C492.079 563.608 489.775 559.928 489.775 555.896V554.328ZM502.732 551.288H504.908C510.252 551.288 513.644 551.096 517.58 550.328L517.836 552.504C513.804 553.272 510.348 553.464 504.908 553.464H502.732V551.288ZM502.732 538.936H515.98V541.112H505.356V551.96H502.732V538.936ZM522.22 536.568H524.876V557.688H522.22V536.568ZM514.124 544.568H522.828V546.712H514.124V544.568ZM506.38 562.872H525.644V565.048H506.38V562.872ZM506.38 556.12H509.036V564.12H506.38V556.12ZM547.619 553.816H550.275V558.52H547.619V553.816ZM559.779 536.568H562.435V565.496H559.779V536.568ZM561.571 548.856H566.915V551.096H561.571V548.856ZM540.163 559.992L539.779 557.784C544.963 557.784 552.035 557.72 558.019 556.856L558.243 558.84C552.003 559.96 545.219 559.992 540.163 559.992ZM540.259 540.056H557.571V542.2H540.259V540.056ZM548.931 543.896C552.963 543.896 555.747 546.008 555.747 549.24C555.747 552.504 552.963 554.584 548.931 554.584C544.899 554.584 542.147 552.504 542.147 549.24C542.147 546.008 544.899 543.896 548.931 543.896ZM548.931 545.944C546.339 545.944 544.643 547.256 544.643 549.24C544.643 551.224 546.339 552.536 548.931 552.536C551.523 552.536 553.251 551.224 553.251 549.24C553.251 547.256 551.523 545.944 548.931 545.944ZM547.619 536.6H550.275V541.496H547.619V536.6ZM590.689 536.536H593.345V565.528H590.689V536.536ZM584.993 543.16H591.393V545.336H584.993V543.16ZM570.625 556.568H572.769C577.249 556.568 580.929 556.44 585.345 555.736L585.601 557.944C581.057 558.648 577.345 558.808 572.769 558.808H570.625V556.568ZM570.561 539.16H583.201V549.528H573.249V557.08H570.625V547.352H580.577V541.368H570.561V539.16ZM584.801 551.064H591.201V553.24H584.801V551.064ZM618.782 536.6H621.438V558.296H618.782V536.6ZM620.606 546.072H625.726V548.312H620.606V546.072ZM599.07 540.088H616.158V542.232H599.07V540.088ZM607.614 543.832C611.71 543.832 614.526 545.976 614.526 549.24C614.526 552.472 611.71 554.616 607.614 554.616C603.486 554.616 600.67 552.472 600.67 549.24C600.67 545.976 603.486 543.832 607.614 543.832ZM607.614 545.912C604.99 545.912 603.198 547.224 603.198 549.24C603.198 551.224 604.99 552.536 607.614 552.536C610.206 552.536 611.998 551.224 611.998 549.24C611.998 547.224 610.206 545.912 607.614 545.912ZM606.27 536.568H608.926V541.208H606.27V536.568ZM603.422 562.68H622.75V564.856H603.422V562.68ZM603.422 556.568H606.078V563.608H603.422V556.568ZM72.104 596.088H77.448V598.328H72.104V596.088ZM70.152 584.536H72.84V613.496H70.152V584.536ZM51.72 587.384H54.376V605.304H51.72V587.384ZM51.72 603.928H54.024C58.312 603.928 62.696 603.64 67.464 602.648L67.784 604.856C62.856 605.88 58.408 606.168 54.024 606.168H51.72V603.928ZM80.0055 601.368H106.246V603.544H80.0055V601.368ZM91.7175 602.68H94.3415V613.496H91.7175V602.68ZM83.3335 586.168H102.854V597.464H83.3335V586.168ZM100.262 588.312H85.9575V595.32H100.262V588.312ZM138.845 584.568H141.501V599.288H138.845V584.568ZM140.349 590.776H145.757V592.984H140.349V590.776ZM120.253 586.2H133.533V597.784H120.253V586.2ZM130.941 588.312H122.845V595.672H130.941V588.312ZM123.133 600.664H141.501V607.768H125.821V612.088H123.197V605.752H138.909V602.776H123.133V600.664ZM123.197 610.968H142.557V613.112H123.197V610.968ZM165.204 587.672H167.38V590.008C167.38 595.32 164.18 599.768 159.316 601.528L157.972 599.416C162.324 597.88 165.204 594.136 165.204 590.008V587.672ZM165.684 587.672H167.86V589.976C167.86 593.752 170.612 597.144 174.868 598.552L173.588 600.632C168.756 599.032 165.684 594.904 165.684 589.976V587.672ZM158.772 586.712H174.228V588.888H158.772V586.712ZM177.876 584.568H180.532V602.008H177.876V584.568ZM179.796 591.896H184.82V594.136H179.796V591.896ZM171.316 602.776C177.204 602.776 180.82 604.728 180.82 608.088C180.82 611.48 177.204 613.432 171.316 613.432C165.428 613.432 161.812 611.48 161.812 608.088C161.812 604.728 165.428 602.776 171.316 602.776ZM171.316 604.92C167.028 604.92 164.404 606.072 164.404 608.088C164.404 610.136 167.028 611.352 171.316 611.352C175.604 611.352 178.228 610.136 178.228 608.088C178.228 606.072 175.604 604.92 171.316 604.92ZM188.914 586.648H191.57V598.872H188.914V586.648ZM188.914 598.04H191.218C195.345 598.04 199.666 597.752 204.402 596.792L204.722 598.968C199.858 599.992 195.506 600.28 191.218 600.28H188.914V598.04ZM207.314 584.6H209.97V605.496H207.314V584.6ZM209.138 593.144H214.258V595.416H209.138V593.144ZM192.05 610.68H210.994V612.856H192.05V610.68ZM192.05 603.448H194.706V611.704H192.05V603.448ZM236.751 584.568H239.407V600.952H236.751V584.568ZM238.671 591.608H243.695V593.816H238.671V591.608ZM228.751 586.424H231.567C231.567 593.72 226.479 598.968 217.967 601.272L216.943 599.16C224.431 597.112 228.751 592.92 228.751 587.608V586.424ZM218.191 586.424H230.223V588.568H218.191V586.424ZM221.199 602.328H239.407V613.112H221.199V602.328ZM236.783 604.472H223.823V610.936H236.783V604.472ZM259.469 585.048C265.837 585.048 269.645 586.84 269.645 590.072C269.645 593.304 265.837 595.096 259.469 595.096C253.069 595.096 249.293 593.304 249.293 590.072C249.293 586.84 253.069 585.048 259.469 585.048ZM259.469 587.064C254.733 587.064 252.013 588.152 252.013 590.072C252.013 591.992 254.733 593.08 259.469 593.08C264.173 593.08 266.893 591.992 266.893 590.072C266.893 588.152 264.173 587.064 259.469 587.064ZM246.381 597.016H272.525V599.16H246.381V597.016ZM249.549 601.624H269.197V608.152H252.237V611.672H249.613V606.232H266.573V603.672H249.549V601.624ZM249.613 611.096H270.061V613.176H249.613V611.096ZM307.46 584.568H310.02V613.496H307.46V584.568ZM302.884 596.024H308.42V598.2H302.884V596.024ZM301.06 585.176H303.588V612.056H301.06V585.176ZM286.468 587.896H297.508V605.752H286.468V587.896ZM295.012 590.008H288.964V603.64H295.012V590.008ZM314.849 601.144H341.089V603.32H314.849V601.144ZM326.561 602.488H329.185V613.496H326.561V602.488ZM327.905 585.72C333.953 585.72 338.017 588.184 338.017 592.056C338.017 595.928 333.953 598.392 327.905 598.392C321.889 598.392 317.793 595.928 317.793 592.056C317.793 588.184 321.889 585.72 327.905 585.72ZM327.905 587.864C323.489 587.864 320.481 589.496 320.481 592.056C320.481 594.616 323.489 596.248 327.905 596.248C332.321 596.248 335.297 594.616 335.297 592.056C335.297 589.496 332.321 587.864 327.905 587.864ZM373.689 584.504H376.345V601.08H373.689V584.504ZM375.609 591.928H380.633V594.136H375.609V591.928ZM365.689 586.424H368.537C368.537 593.72 363.513 598.808 354.937 601.08L353.945 598.904C361.529 596.952 365.689 592.856 365.689 587.672V586.424ZM355.225 586.424H367.225V588.568H355.225V586.424ZM365.977 603.576H368.249V604.44C368.249 609.048 363.481 612.44 357.817 613.432L356.793 611.384C361.785 610.616 365.977 607.736 365.977 604.44V603.576ZM366.521 603.576H368.793V604.44C368.793 607.672 373.049 610.616 377.945 611.416L376.953 613.464C371.289 612.472 366.521 608.952 366.521 604.44V603.576ZM357.881 602.52H376.857V604.664H357.881V602.52ZM386.102 587.448H404.726V589.656H386.102V587.448ZM383.35 607.256H409.494V609.464H383.35V607.256ZM393.494 596.92H396.15V608.344H393.494V596.92ZM403.734 587.448H406.358V590.328C406.358 593.912 406.358 597.88 405.302 603.736L402.646 603.384C403.734 597.848 403.734 593.784 403.734 590.328V587.448ZM443.405 584.6H446.093V600.632H443.405V584.6ZM429.901 585.624H432.109V588.44C432.109 593.784 428.781 598.296 423.885 600.056L422.541 597.976C426.893 596.44 429.901 592.6 429.901 588.44V585.624ZM430.381 585.624H432.557V588.44C432.557 592.472 435.597 596.024 439.885 597.432L438.573 599.544C433.709 597.88 430.381 593.624 430.381 588.44V585.624ZM426.957 602.36H446.253V604.536H426.957V602.36ZM426.669 610.968H446.573V613.112H426.669V610.968ZM430.925 603.288H433.517V612.216H430.925V603.288ZM439.693 603.288H442.317V612.216H439.693V603.288ZM459.531 586.776C463.723 586.776 466.731 590.712 466.731 596.856C466.731 603.032 463.723 606.968 459.531 606.968C455.307 606.968 452.331 603.032 452.331 596.856C452.331 590.712 455.307 586.776 459.531 586.776ZM459.531 589.176C456.747 589.176 454.859 592.184 454.859 596.856C454.859 601.56 456.747 604.632 459.531 604.632C462.315 604.632 464.203 601.56 464.203 596.856C464.203 592.184 462.315 589.176 459.531 589.176ZM473.003 584.536H475.627V613.528H473.003V584.536ZM465.867 595.576H474.155V597.752H465.867V595.576ZM503.08 584.6H505.608V602.488H503.08V584.6ZM498.376 592.504H503.848V594.68H498.376V592.504ZM496.936 585.016H499.464V602.072H496.936V585.016ZM481.096 587.864H495.752V589.976H481.096V587.864ZM488.456 591.416C492.072 591.416 494.6 593.368 494.6 596.376C494.6 599.384 492.072 601.336 488.456 601.336C484.808 601.336 482.28 599.384 482.28 596.376C482.28 593.368 484.808 591.416 488.456 591.416ZM488.456 593.432C486.184 593.432 484.648 594.584 484.648 596.376C484.648 598.168 486.184 599.352 488.456 599.352C490.696 599.352 492.232 598.168 492.232 596.376C492.232 594.584 490.696 593.432 488.456 593.432ZM487.144 584.696H489.736V589.112H487.144V584.696ZM488.872 603.352H490.92V604.344C490.92 607.992 488.52 611.64 484.328 613.144L483.08 611.16C486.696 609.944 488.872 606.968 488.872 604.344V603.352ZM489.48 603.352H491.432V604.344C491.432 607.128 493.128 610.072 496.584 611.384L495.464 613.4C491.336 611.864 489.48 608.024 489.48 604.344V603.352ZM499.496 603.352H501.448V604.344C501.448 607.608 499.56 611.736 495.464 613.4L494.376 611.384C497.736 609.912 499.496 606.744 499.496 604.344V603.352ZM500.04 603.352H502.088V604.344C502.088 607.16 504.264 610.008 507.912 611.16L506.632 613.144C502.408 611.704 500.04 608.184 500.04 604.344V603.352ZM513.99 601.912H516.614V605.272H530.758V601.912H533.414V613.112H513.99V601.912ZM516.614 607.32V610.968H530.758V607.32H516.614ZM510.662 597.752H536.806V599.896H510.662V597.752ZM522.406 584.888H524.678V586.168C524.678 591.192 519.078 594.808 513.126 595.704L512.166 593.624C517.382 592.92 522.406 589.816 522.406 586.168V584.888ZM522.822 584.888H525.094V586.168C525.094 589.752 530.182 592.92 535.334 593.624L534.342 595.704C528.454 594.808 522.822 591.128 522.822 586.168V584.888ZM561.155 584.568H563.811V613.496H561.155V584.568ZM541.955 587.384H544.579V605.304H541.955V587.384ZM541.955 603.736H544.323C548.707 603.736 553.283 603.416 558.179 602.392L558.499 604.664C553.475 605.688 548.899 606.04 544.323 606.04H541.955V603.736ZM589.121 584.536H591.809V613.528H589.121V584.536ZM591.169 595.96H596.545V598.2H591.169V595.96ZM570.785 604.088H573.057C578.401 604.088 582.145 603.896 586.465 603.096L586.753 605.336C582.305 606.168 578.497 606.328 573.057 606.328H570.785V604.088ZM570.785 587.352H584.225V589.528H573.409V605.08H570.785V587.352ZM601.214 611.384C600.617 611.384 600.137 611.203 599.774 610.84C599.412 610.456 599.23 610.029 599.23 609.56C599.23 608.771 599.476 608.163 599.966 607.736C600.457 607.309 601.001 607.096 601.598 607.096C602.217 607.096 602.697 607.277 603.038 607.64C603.401 608.003 603.582 608.429 603.582 608.92C603.582 609.709 603.337 610.317 602.846 610.744C602.377 611.171 601.833 611.384 601.214 611.384ZM53.416 635.64H72.04V637.784H53.416V635.64ZM50.6 655.064H76.744V657.272H50.6V655.064ZM70.632 635.64H73.224V638.52C73.224 642.232 73.224 646.36 72.136 652.6L69.48 652.344C70.632 646.424 70.632 642.104 70.632 638.52V635.64ZM101.158 632.536H103.814V661.528H101.158V632.536ZM95.6535 643.672H101.798V645.848H95.6535V643.672ZM81.0935 652.376H83.3015C88.4215 652.376 92.0375 652.216 96.2935 651.448L96.5495 653.656C92.1975 654.424 88.5175 654.616 83.3015 654.616H81.0935V652.376ZM81.0295 635.256H93.9575V645.4H83.7175V653.048H81.0935V643.224H91.3335V637.432H81.0295V635.256ZM130.979 644.088H136.323V646.328H130.979V644.088ZM129.027 632.536H131.715V661.496H129.027V632.536ZM110.595 635.384H113.251V653.304H110.595V635.384ZM110.595 651.928H112.899C117.187 651.928 121.571 651.64 126.339 650.648L126.659 652.856C121.731 653.88 117.283 654.168 112.899 654.168H110.595V651.928ZM151.322 635.64H169.946V637.784H151.322V635.64ZM148.506 655.064H174.65V657.272H148.506V655.064ZM168.538 635.64H171.13V638.52C171.13 642.232 171.13 646.36 170.042 652.6L167.386 652.344C168.538 646.424 168.538 642.104 168.538 638.52V635.64ZM194.642 635.672H196.818V638.008C196.818 643.32 193.618 647.768 188.754 649.528L187.41 647.416C191.762 645.88 194.642 642.136 194.642 638.008V635.672ZM195.122 635.672H197.298V637.976C197.298 641.752 200.05 645.144 204.306 646.552L203.026 648.632C198.194 647.032 195.122 642.904 195.122 637.976V635.672ZM188.21 634.712H203.666V636.888H188.21V634.712ZM207.314 632.568H209.97V650.008H207.314V632.568ZM209.234 639.896H214.258V642.136H209.234V639.896ZM200.754 650.776C206.642 650.776 210.258 652.728 210.258 656.088C210.258 659.48 206.642 661.432 200.754 661.432C194.866 661.432 191.25 659.48 191.25 656.088C191.25 652.728 194.866 650.776 200.754 650.776ZM200.754 652.92C196.466 652.92 193.842 654.072 193.842 656.088C193.842 658.136 196.466 659.352 200.754 659.352C205.042 659.352 207.666 658.136 207.666 656.088C207.666 654.072 205.042 652.92 200.754 652.92ZM218.351 634.648H221.007V646.872H218.351V634.648ZM218.351 646.04H220.655C224.783 646.04 229.103 645.752 233.839 644.792L234.159 646.968C229.295 647.992 224.943 648.28 220.655 648.28H218.351V646.04ZM236.751 632.6H239.407V653.496H236.751V632.6ZM238.575 641.144H243.695V643.416H238.575V641.144ZM221.487 658.68H240.431V660.856H221.487V658.68ZM221.487 651.448H224.143V659.704H221.487V651.448ZM266.189 632.568H268.845V648.952H266.189V632.568ZM268.109 639.608H273.133V641.816H268.109V639.608ZM258.189 634.424H261.005C261.005 641.72 255.917 646.968 247.405 649.272L246.381 647.16C253.869 645.112 258.189 640.92 258.189 635.608V634.424ZM247.629 634.424H259.661V636.568H247.629V634.424ZM250.637 650.328H268.845V661.112H250.637V650.328ZM266.221 652.472H253.26V658.936H266.221V652.472ZM275.818 647.768H301.962V649.944H275.818V647.768ZM279.21 658.68H299.082V660.856H279.21V658.68ZM279.21 652.472H281.866V659.352H279.21V652.472ZM288.906 633.528C295.082 633.528 299.082 635.704 299.082 639.32C299.082 642.904 295.082 645.08 288.906 645.08C282.698 645.08 278.73 642.904 278.73 639.32C278.73 635.704 282.698 633.528 288.906 633.528ZM288.906 635.704C284.362 635.704 281.45 637.048 281.45 639.32C281.45 641.592 284.362 642.936 288.906 642.936C293.45 642.936 296.362 641.592 296.362 639.32C296.362 637.048 293.45 635.704 288.906 635.704ZM336.897 632.568H339.457V661.496H336.897V632.568ZM332.321 644.024H337.857V646.2H332.321V644.024ZM330.497 633.176H333.025V660.056H330.497V633.176ZM315.905 635.896H326.945V653.752H315.905V635.896ZM324.449 638.008H318.401V651.64H324.449V638.008ZM344.287 649.144H370.527V651.32H344.287V649.144ZM355.999 650.488H358.623V661.496H355.999V650.488ZM357.343 633.72C363.391 633.72 367.455 636.184 367.455 640.056C367.455 643.928 363.391 646.392 357.343 646.392C351.327 646.392 347.231 643.928 347.231 640.056C347.231 636.184 351.327 633.72 357.343 633.72ZM357.343 635.864C352.927 635.864 349.919 637.496 349.919 640.056C349.919 642.616 352.927 644.248 357.343 644.248C361.759 644.248 364.735 642.616 364.735 640.056C364.735 637.496 361.759 635.864 357.343 635.864ZM404.342 632.536H406.998V661.528H404.342V632.536ZM384.982 635H387.606V642.648H395.958V635H398.614V654.552H384.982V635ZM387.606 644.76V652.376H395.958V644.76H387.606ZM433.172 632.568H435.828V649.144H433.172V632.568ZM434.484 639.544H439.476V641.784H434.484V639.544ZM420.02 650.456H422.068V651.896C422.068 655.64 419.7 659.544 415.54 661.144L414.196 659.16C417.844 657.848 420.02 654.648 420.02 651.896V650.456ZM420.595 650.456H422.58V651.896C422.58 654.488 424.276 657.848 427.732 659.416L426.58 661.4C422.484 659.64 420.595 655.352 420.595 651.896V650.456ZM430.612 650.456H432.596V651.896C432.596 655.288 430.676 659.608 426.58 661.4L425.46 659.416C428.884 657.784 430.612 654.424 430.612 651.896V650.456ZM431.156 650.456H433.172V651.896C433.172 654.84 435.348 657.88 438.996 659.16L437.652 661.144C433.492 659.608 431.156 655.832 431.156 651.896V650.456ZM417.012 634.136H418.964V636.888C418.964 640.632 417.684 645.528 414.004 647.768L412.5 645.848C415.828 643.832 417.012 639.768 417.012 636.888V634.136ZM417.62 634.136H419.54V636.888C419.54 639.576 420.308 643.832 423.54 646.04L422.26 648.056C418.452 645.624 417.62 640.344 417.62 636.888V634.136ZM424.948 634.136H426.868V636.888C426.868 640.536 426.004 645.688 422.26 648.056L420.948 646.04C424.18 643.896 424.948 639.736 424.948 636.888V634.136ZM425.524 634.136H427.476V636.888C427.476 640.12 428.628 643.96 431.956 645.848L430.484 647.768C426.772 645.624 425.524 640.984 425.524 636.888V634.136ZM444.977 635.448H463.601V637.656H444.977V635.448ZM442.225 655.256H468.369V657.464H442.225V655.256ZM452.369 644.92H455.025V656.344H452.369V644.92ZM462.609 635.448H465.233V638.328C465.233 641.912 465.233 645.88 464.177 651.736L461.521 651.384C462.609 645.848 462.609 641.784 462.609 638.328V635.448ZM476.239 656.92C475.769 658.541 475.033 659.96 474.031 661.176C473.028 662.392 471.833 663.373 470.447 664.12L468.942 663.224C469.988 662.136 470.873 661.037 471.599 659.928C472.324 658.819 472.953 657.549 473.487 656.12L476.239 656.92ZM503.138 639.16H508.066V641.336H503.138V639.16ZM512.674 632.6H515.202V647.608H512.674V632.6ZM507.202 633.176H509.73V647.416H507.202V633.176ZM496.13 648.952H515.202V655.864H498.85V660.184H496.194V653.848H512.61V651.096H496.13V648.952ZM496.194 658.968H516.322V661.112H496.194V658.968ZM497.698 633.912C501.506 633.912 504.258 636.504 504.258 640.28C504.258 644.056 501.506 646.648 497.698 646.648C493.826 646.648 491.106 644.056 491.106 640.28C491.106 636.504 493.826 633.912 497.698 633.912ZM497.698 636.024C495.266 636.024 493.506 637.784 493.506 640.28C493.506 642.744 495.266 644.536 497.698 644.536C500.098 644.536 501.858 642.744 501.858 640.28C501.858 637.784 500.098 636.024 497.698 636.024ZM541.344 632.536H544V661.528H541.344V632.536ZM521.952 652.344H524.352C529.184 652.344 533.504 652.152 538.624 651.32L538.912 653.496C533.664 654.36 529.312 654.552 524.352 654.552H521.952V652.344ZM521.888 635.256H535.264V645.592H524.608V653.176H521.952V643.416H532.576V637.432H521.888V635.256ZM571.229 644.088H576.573V646.328H571.229V644.088ZM569.277 632.536H571.965V661.496H569.277V632.536ZM550.845 635.384H553.501V653.304H550.845V635.384ZM550.845 651.928H553.149C557.437 651.928 561.821 651.64 566.589 650.648L566.909 652.856C561.981 653.88 557.533 654.168 553.149 654.168H550.845V651.928ZM582.683 641.24H602.331V643.416H582.683V641.24ZM579.131 647.288H605.371V649.464H579.131V647.288ZM582.683 633.624H585.307V642.328H582.683V633.624ZM582.491 658.616H602.491V660.792H582.491V658.616ZM582.491 652.344H585.115V659.192H582.491V652.344ZM53.416 683.64H72.04V685.784H53.416V683.64ZM50.6 703.064H76.744V705.272H50.6V703.064ZM70.632 683.64H73.224V686.52C73.224 690.232 73.224 694.36 72.136 700.6L69.48 700.344C70.632 694.424 70.632 690.104 70.632 686.52V683.64ZM101.158 680.568H103.814V700.152H101.158V680.568ZM94.9495 688.728H101.702V690.904H94.9495V688.728ZM92.0695 682.84H94.8535C94.8535 690.328 89.9255 695.64 81.6375 698.328L80.5175 696.216C87.8455 693.912 92.0695 689.56 92.0695 683.896V682.84ZM81.8935 682.84H93.9575V685.016H81.8935V682.84ZM93.1575 697.656H95.4295V698.968C95.4295 704.504 90.3735 708.248 84.5815 709.432L83.5255 707.32C88.6455 706.392 93.1575 703.192 93.1575 698.968V697.656ZM93.5415 697.656H95.8135V698.968C95.8135 703.128 100.262 706.328 105.414 707.256L104.294 709.368C98.5335 708.216 93.5415 704.472 93.5415 698.968V697.656ZM122.531 681.048C128.899 681.048 132.707 682.84 132.707 686.072C132.707 689.304 128.899 691.096 122.531 691.096C116.131 691.096 112.355 689.304 112.355 686.072C112.355 682.84 116.131 681.048 122.531 681.048ZM122.531 683.064C117.795 683.064 115.075 684.152 115.075 686.072C115.075 687.992 117.795 689.08 122.531 689.08C127.235 689.08 129.955 687.992 129.955 686.072C129.955 684.152 127.235 683.064 122.531 683.064ZM109.443 693.016H135.587V695.16H109.443V693.016ZM112.611 697.624H132.259V704.152H115.299V707.672H112.675V702.232H129.635V699.672H112.611V697.624ZM112.675 707.096H133.123V709.176H112.675V707.096ZM155.546 681.528H157.722V683.832C157.722 689.272 154.554 693.624 149.626 695.352L148.314 693.208C152.698 691.768 155.546 688.12 155.546 683.832V681.528ZM156.026 681.528H158.17V683.768C158.17 687.672 161.018 691.064 165.274 692.408L163.898 694.488C159.162 692.856 156.026 688.824 156.026 683.768V681.528ZM168.282 680.568H170.938V695.64H168.282V680.568ZM169.786 686.872H175.194V689.08H169.786V686.872ZM152.57 696.984H170.938V703.928H155.258V708.248H152.634V701.912H168.346V699.096H152.57V696.984ZM152.634 707.064H171.994V709.176H152.634V707.064ZM199.282 696.248H201.874V700.6H199.282V696.248ZM187.506 694.84H213.65V696.984H187.506V694.84ZM199.282 680.472H201.906V684.376H199.282V680.472ZM199.154 684.696H201.49V685.176C201.49 689.912 196.178 692.664 189.842 693.304L189.042 691.256C194.642 690.776 199.154 688.472 199.154 685.176V684.696ZM199.698 684.696H202.034V685.176C202.034 688.472 206.546 690.776 212.146 691.256L211.346 693.304C205.01 692.664 199.698 689.912 199.698 685.176V684.696ZM190.194 683.384H210.994V685.496H190.194V683.384ZM200.562 699.864C206.802 699.864 210.482 701.56 210.482 704.664C210.482 707.768 206.802 709.432 200.562 709.432C194.322 709.432 190.641 707.768 190.641 704.664C190.641 701.56 194.322 699.864 200.562 699.864ZM200.562 701.88C195.986 701.88 193.33 702.84 193.33 704.664C193.33 706.424 195.986 707.416 200.562 707.416C205.138 707.416 207.794 706.424 207.794 704.664C207.794 702.84 205.138 701.88 200.562 701.88ZM216.943 695.832H243.151V698.008H216.943V695.832ZM228.911 696.92H231.567V703.576H228.911V696.92ZM220.271 706.68H240.239V708.856H220.271V706.68ZM220.271 701.016H222.895V707.512H220.271V701.016ZM220.431 681.464H223.055V685.144H237.039V681.464H239.695V693.048H220.431V681.464ZM223.055 687.224V690.904H237.039V687.224H223.055ZM266.189 680.6H268.845V702.296H266.189V680.6ZM268.013 690.072H273.133V692.312H268.013V690.072ZM246.477 684.088H263.565V686.232H246.477V684.088ZM255.021 687.832C259.117 687.832 261.933 689.976 261.933 693.24C261.933 696.472 259.117 698.616 255.021 698.616C250.893 698.616 248.077 696.472 248.077 693.24C248.077 689.976 250.893 687.832 255.021 687.832ZM255.021 689.912C252.397 689.912 250.605 691.224 250.605 693.24C250.605 695.224 252.397 696.536 255.021 696.536C257.613 696.536 259.405 695.224 259.405 693.24C259.405 691.224 257.613 689.912 255.021 689.912ZM253.677 680.568H256.333V685.208H253.677V680.568ZM250.829 706.68H270.157V708.856H250.829V706.68ZM250.829 700.568H253.485V707.608H250.829V700.568ZM285.444 695.8H311.588V697.944H285.444V695.8ZM297.188 691.064H299.812V696.888H297.188V691.064ZM288.74 689.848H308.58V692.024H288.74V689.848ZM288.74 682.008H308.324V684.184H291.396V690.776H288.74V682.008ZM288.772 706.68H308.836V708.856H288.772V706.68ZM288.772 700.536H291.428V707.416H288.772V700.536ZM335.873 680.536H338.529V709.528H335.873V680.536ZM323.265 682.776C327.553 682.776 330.625 686.712 330.625 692.856C330.625 699.032 327.553 702.968 323.265 702.968C319.009 702.968 315.937 699.032 315.937 692.856C315.937 686.712 319.009 682.776 323.265 682.776ZM323.265 685.176C320.449 685.176 318.465 688.184 318.465 692.856C318.465 697.56 320.449 700.632 323.265 700.632C326.113 700.632 328.065 697.56 328.065 692.856C328.065 688.184 326.113 685.176 323.265 685.176ZM357.209 697.528H359.705V701.144H364.761V697.528H367.225V709.112H357.209V697.528ZM359.705 703.128V707.032H364.761V703.128H359.705ZM372.825 697.368H374.873V699.768C374.873 703.704 372.889 707.672 368.889 709.368L367.545 707.352C371.033 705.88 372.825 702.712 372.825 699.768V697.368ZM373.369 697.368H375.417V699.768C375.417 702.872 377.209 706.008 380.697 707.352L379.353 709.368C375.321 707.704 373.369 703.864 373.369 699.768V697.368ZM368.441 687.352H376.217V689.56H368.441V687.352ZM361.785 681.848C366.105 681.848 369.241 684.536 369.241 688.504C369.241 692.44 366.105 695.16 361.785 695.16C357.465 695.16 354.329 692.44 354.329 688.504C354.329 684.536 357.465 681.848 361.785 681.848ZM361.785 684.056C358.937 684.056 356.889 685.88 356.889 688.504C356.889 691.096 358.937 692.952 361.785 692.952C364.633 692.952 366.681 691.096 366.681 688.504C366.681 685.88 364.633 684.056 361.785 684.056ZM375.033 680.568H377.689V695.896H375.033V680.568ZM390.71 698.2H392.79V699.864C392.79 703.704 390.422 707.544 386.262 709.144L384.918 707.16C388.566 705.816 390.71 702.68 390.71 699.864V698.2ZM391.318 698.2H393.302V699.864C393.302 702.808 394.998 705.976 398.486 707.384L397.366 709.4C393.174 707.768 391.318 703.736 391.318 699.864V698.2ZM401.43 698.2H403.382V699.864C403.382 703.288 401.494 707.64 397.366 709.4L396.214 707.384C399.67 705.784 401.43 702.392 401.43 699.864V698.2ZM401.942 698.2H404.022V699.864C404.022 702.904 406.134 705.912 409.846 707.16L408.47 709.144C404.278 707.608 401.942 703.896 401.942 699.864V698.2ZM397.558 687.8H405.206V690.008H397.558V687.8ZM391.222 682.2C395.478 682.2 398.646 684.984 398.646 688.984C398.646 692.952 395.478 695.736 391.222 695.736C386.966 695.736 383.83 692.952 383.83 688.984C383.83 684.984 386.966 682.2 391.222 682.2ZM391.222 684.408C388.406 684.408 386.358 686.328 386.358 688.984C386.358 691.64 388.406 693.528 391.222 693.528C394.006 693.528 396.086 691.64 396.086 688.984C396.086 686.328 394.006 684.408 391.222 684.408ZM404.47 680.568H407.126V697.048H404.47V680.568ZM416.084 697.912H418.708V701.272H432.852V697.912H435.508V709.112H416.084V697.912ZM418.708 703.32V706.968H432.852V703.32H418.708ZM412.756 693.752H438.9V695.896H412.756V693.752ZM424.5 680.888H426.772V682.168C426.772 687.192 421.172 690.808 415.22 691.704L414.26 689.624C419.476 688.92 424.5 685.816 424.5 682.168V680.888ZM424.916 680.888H427.188V682.168C427.188 685.752 432.276 688.92 437.428 689.624L436.436 691.704C430.548 690.808 424.916 687.128 424.916 682.168V680.888ZM463.249 680.568H465.905V709.496H463.249V680.568ZM444.049 683.384H446.673V701.304H444.049V683.384ZM444.049 699.736H446.417C450.801 699.736 455.377 699.416 460.273 698.392L460.593 700.664C455.569 701.688 450.993 702.04 446.417 702.04H444.049V699.736ZM491.215 680.536H493.903V709.528H491.215V680.536ZM493.263 691.96H498.639V694.2H493.263V691.96ZM472.879 700.088H475.151C480.495 700.088 484.239 699.896 488.559 699.096L488.847 701.336C484.399 702.168 480.591 702.328 475.151 702.328H472.879V700.088ZM472.879 683.352H486.319V685.528H475.503V701.08H472.879V683.352ZM503.308 707.384C502.711 707.384 502.231 707.203 501.868 706.84C501.505 706.456 501.324 706.029 501.324 705.56C501.324 704.771 501.569 704.163 502.06 703.736C502.551 703.309 503.095 703.096 503.692 703.096C504.311 703.096 504.791 703.277 505.132 703.64C505.495 704.003 505.676 704.429 505.676 704.92C505.676 705.709 505.431 706.317 504.94 706.744C504.471 707.171 503.927 707.384 503.308 707.384Z" fill="#171717"/>
<path d="M68.6675 410V397.311C68.6675 391.39 72.6461 390 74.7245 390H79V395.438H76.8622C74.6651 395.438 74.3088 397.069 74.3088 397.674V399.728H79V410H68.6675ZM54 410V397.311C54 391.39 57.9786 390 60.057 390H64.3325V395.438H62.1948C59.9382 395.438 59.6413 397.13 59.6413 397.674V399.728H64.3325V410H54Z" fill="#FF6007"/>
</svg>
